<svg width="596" height="530" viewBox="0 0 596 530" fill="none" xmlns="http://www.w3.org/2000/svg">
<path d="M656.837 164.24C659.598 164.24 661.837 162.002 661.837 159.24C661.837 156.479 659.598 154.24 656.837 154.24V164.24ZM544.104 235.212L548.247 238.012L544.104 235.212ZM448.391 340.319L451.339 344.358L448.391 340.319ZM283.105 397.911L282.634 392.933L283.105 397.911ZM154.988 370L158.389 366.335L154.988 370ZM112.782 263.259L117.782 263.212L112.782 263.259ZM206.5 196L203.727 200.161L206.5 196ZM209.448 296.343L213.289 299.544L209.448 296.343ZM163.702 323.437L164.787 328.318L163.702 323.437ZM54.5099 327.249L52.432 331.797L54.5099 327.249ZM5.08748 228.949L0.0892563 229.082L5.08748 228.949ZM40.4864 115.264L44.3607 118.424L40.4864 115.264ZM222.519 8.38628L221.689 3.45563L222.519 8.38628ZM377.457 51.4096L373.357 54.2717L377.457 51.4096ZM368.88 187.423L373.24 189.87L368.88 187.423ZM322.997 235.212L321.532 230.431L322.997 235.212ZM264.5 211.5L259.783 213.16L264.5 211.5ZM384.537 197.362L388.595 194.441L384.537 197.362ZM401.964 323.437L406.834 324.571L401.964 323.437ZM363.978 454.549L359.235 452.968L363.978 454.549ZM335.953 525.975C336.827 528.595 339.658 530.011 342.278 529.137L384.969 514.907C387.588 514.034 389.004 511.202 388.131 508.583C387.258 505.963 384.426 504.547 381.806 505.42L343.859 518.069L331.21 480.122C330.337 477.502 327.505 476.087 324.885 476.96C322.266 477.833 320.85 480.665 321.723 483.284L335.953 525.975ZM656.837 154.24C646.87 154.24 633.69 153.205 621.639 154.26C609.357 155.335 596.741 158.621 587.268 168.094L594.339 175.165C601.384 168.121 611.199 165.212 622.511 164.222C634.055 163.211 645.632 164.24 656.837 164.24V154.24ZM587.268 168.094C568.826 186.537 553.86 211.85 539.962 232.412L548.247 238.012C562.68 216.658 576.792 192.713 594.339 175.165L587.268 168.094ZM539.962 232.412C513.433 271.661 483.536 308.483 445.444 336.281L451.339 344.358C490.779 315.577 521.439 277.673 548.247 238.012L539.962 232.412ZM445.444 336.281C399.446 369.847 339.369 387.558 282.634 392.933L283.577 402.889C341.504 397.401 403.47 379.289 451.339 344.358L445.444 336.281ZM282.634 392.933C236.957 397.26 191.926 397.452 158.389 366.335L151.588 373.665C188.694 408.094 238.029 407.204 283.577 402.889L282.634 392.933ZM158.389 366.335C130.98 340.904 118.131 300.555 117.782 263.212L107.782 263.305C108.148 302.474 121.574 345.817 151.588 373.665L158.389 366.335ZM117.782 263.212C117.525 235.775 122.61 208.882 146.236 197.069L141.764 188.125C112.342 202.836 107.525 235.746 107.782 263.305L117.782 263.212ZM146.236 197.069C161.956 189.209 185.138 187.773 203.727 200.161L209.273 191.839C187.179 177.116 160.094 178.96 141.764 188.125L146.236 197.069ZM203.727 200.161C218.174 209.788 224.138 226.202 223.639 244.069C223.138 261.99 216.099 280.552 205.607 293.142L213.289 299.544C225.275 285.161 233.074 264.421 233.635 244.349C234.198 224.223 227.449 203.952 209.273 191.839L203.727 200.161ZM205.607 293.142C194.989 305.884 178.866 314.945 162.617 318.556L164.787 328.318C182.919 324.288 201.086 314.188 213.289 299.544L205.607 293.142ZM162.617 318.556C146.122 322.222 127.151 326.733 108.31 328.562C89.4385 330.395 71.3658 329.453 56.5877 322.701L52.432 331.797C69.564 339.624 89.7157 340.415 109.277 338.516C128.869 336.613 148.539 331.928 164.787 328.318L162.617 318.556ZM56.5877 322.701C22.2337 307.005 11.0751 265.918 10.0857 228.816L0.0892563 229.082C1.09389 266.756 12.4034 313.508 52.432 331.797L56.5877 322.701ZM10.0857 228.816C8.9889 187.686 18.2986 150.372 44.3607 118.424L36.6121 112.103C8.68028 146.342 -1.0546 186.188 0.0892563 229.082L10.0857 228.816ZM44.3607 118.424C87.3249 65.7588 156.13 24.631 223.349 13.3169L221.689 3.45563C151.988 15.1875 81.0501 57.6308 36.6121 112.103L44.3607 118.424ZM223.349 13.3169C248.254 9.12488 278.267 8.35638 305.877 14.2411C333.511 20.131 358.196 32.554 373.357 54.2717L381.557 48.5475C364.433 24.0183 337.033 10.6571 307.961 4.46077C278.865 -1.74073 247.551 -0.897446 221.689 3.45563L223.349 13.3169ZM373.357 54.2717C386.759 73.4687 390.13 96.17 387.312 119.216C384.49 142.301 375.478 165.441 364.519 184.977L373.24 189.87C384.644 169.541 394.216 145.148 397.238 120.43C400.265 95.6735 396.743 70.3005 381.557 48.5475L373.357 54.2717ZM364.519 184.977C359.365 194.164 353.435 204.112 346.264 212.54C339.09 220.974 330.96 227.542 321.532 230.431L324.462 239.992C336.41 236.331 346.046 228.23 353.881 219.02C361.721 209.804 368.044 199.133 373.24 189.87L364.519 184.977ZM321.532 230.431C313.131 233.006 301.546 232.721 291.144 229.127C280.747 225.535 272.433 218.983 269.217 209.84L259.783 213.16C264.358 226.16 275.747 234.388 287.878 238.579C300.005 242.768 313.773 243.268 324.462 239.992L321.532 230.431ZM269.217 209.84C261.414 187.666 276.865 160.5 305.5 160.5V150.5C269.437 150.5 249.872 184.991 259.783 213.16L269.217 209.84ZM305.5 160.5C325.865 160.5 339.925 164.232 351.088 170.822C362.323 177.454 371.095 187.25 380.479 200.284L388.595 194.441C378.942 181.034 369.196 169.899 356.172 162.211C343.076 154.479 327.135 150.5 305.5 150.5V160.5ZM380.479 200.284C404.29 233.355 406.21 283.162 397.094 322.303L406.834 324.571C416.274 284.032 414.787 230.819 388.595 194.441L380.479 200.284ZM397.094 322.303C386.752 366.712 373.688 409.61 359.235 452.968L368.722 456.13C383.225 412.62 396.394 369.4 406.834 324.571L397.094 322.303ZM359.235 452.968C355.46 464.293 352.13 476.892 348.603 488.739C345.024 500.758 341.176 512.254 336.225 522.158L345.169 526.63C350.528 515.911 354.576 503.722 358.187 491.593C361.85 479.292 365.005 467.279 368.722 456.13L359.235 452.968Z" fill="white"/>
</svg>