<svg xmlns="http://www.w3.org/2000/svg" viewBox="0 0 308.55 202.99">
  <defs>
    <style>
      .cls-1 {
        fill: #fff;
      }
    </style>
  </defs>
  <g id="Layer_2" data-name="Layer 2">
    <g id="Layer_3" data-name="Layer 3">
      <path class="cls-1" d="M304.85,123.54c-24.52,15-49.91,30.59-78.51,36.25a105.14,105.14,0,0,1-39.77.3,122.15,122.15,0,0,1-36.65-13.35A140.79,140.79,0,0,1,118.46,123c-9.67-9.67-18.17-20.68-24.18-33C88.13,77.37,85,63.29,86.55,49.27,88,36.2,93.88,23.9,103.91,15.3c9-7.73,21.61-12.24,33.47-9.64,6.16,1.36,11.82,4.61,15.24,10s4.7,11.8,5,18c1.3,24.44-14.49,47.62-35.4,59.17-24.49,13.53-54.78,12.85-80.92,4.88-10.42-3.17-21.8-8.39-28.12-17.69A23.53,23.53,0,0,1,9,64.63,24.07,24.07,0,0,1,16.08,50c4.23-4.15,11-7.47,16.66-4.31,5.38,3,8.74,9.19,11.16,14.62,5.26,11.82,5.81,25.4,4,38-4,28.54-19.82,53.21-28.9,80.16a127,127,0,0,0-5.21,20.61l4.57-.6A215.06,215.06,0,0,0,4.71,176.41c-1.83-2.59-6-.29-4.32,2.52l13.67,22.81a2.56,2.56,0,0,0,2.83,1.15l22.85-7.38c3-1,1.75-5.81-1.33-4.82l-22.85,7.38,2.82,1.14L4.71,176.41.39,178.93A215.06,215.06,0,0,1,14.06,201c.95,1.77,4.22,1.56,4.57-.6,4.9-30.55,23.06-56.58,31.07-86.16,3.67-13.56,5.39-27.9,3-41.83A59.93,59.93,0,0,0,46,53.25c-3.23-5.73-7.87-11.86-14.62-13.48-7-1.68-14.29,2.08-19.09,6.95A29.35,29.35,0,0,0,4.13,63.57C2.51,76.32,10.55,87.15,20.72,93.85c11.13,7.34,24.74,10.9,37.78,12.94,14.71,2.3,29.85,2.26,44.38-1.21a81.59,81.59,0,0,0,36.68-19.16,73.86,73.86,0,0,0,20.52-32.36c3.77-12.45,4.1-27.46-2.15-39.19C151.1,2.07,135.68-1.88,122.24.79,109.36,3.36,98,11.8,90.8,22.61,82.63,34.8,80,50.2,81.62,64.62c1.69,14.89,7.74,28.88,16.11,41.21a144.6,144.6,0,0,0,29,31.26c21.63,17.4,48.4,29,76.39,29.74,30.57.76,59.06-12.36,84.94-27.35,6.51-3.77,12.93-7.69,19.34-11.63,2.74-1.68.23-6-2.52-4.31Z"/>
    </g>
  </g>
</svg>
