<svg xmlns="http://www.w3.org/2000/svg" viewBox="0 0 244.51 111.58">
  <defs>
    <style>
      .cls-1 {
        fill: #fff;
      }
    </style>
  </defs>
  <g id="Layer_2" data-name="Layer 2">
    <g id="Layer_1-2" data-name="Layer 1">
      <path class="cls-1" d="M5.54,37c-.81-8.07-1.85-18.7,4.12-25.21C13.07,8,18,6.74,22.83,5.93s10.11-1.48,15-.45A15.11,15.11,0,0,1,48,12.62a24.54,24.54,0,0,1,3,11.9c.23,9.9-3.6,19.58-7.34,28.57-4,9.63-8.54,19.18-10.53,29.48-1.76,9.07-2.36,21.89,7.1,27.09,9.16,5,20.14-.74,27-7.09a47.65,47.65,0,0,0,14.4-27.19c1.88-11.48.46-23.28,2.85-34.69,2-9.38,7.31-19,17.25-21.57,8.8-2.26,16.39,4,19.56,11.82,4.23,10.48.74,22-2.79,32.14-3.91,11.22-8.56,22.86-6.69,35,.75,4.86,3.43,9.07,8,11a19.44,19.44,0,0,0,12.6.6c9.32-2.5,16-10.87,19.78-19.36,4.59-10.45,5.45-21.79,6.87-33,1.29-10.15,3.41-20.53,9.57-28.95A26.32,26.32,0,0,1,179,19.83a25.08,25.08,0,0,1,24.46,2.86c3.88,2.87,6.54,7.06,8.69,11.3,2.39,4.7,4.26,9.63,6.57,14.36a87,87,0,0,0,8,13.52A57.22,57.22,0,0,0,237.36,73l1.76-4.27a133.59,133.59,0,0,0-24.24-.82,2.5,2.5,0,0,0,0,5l26.37,1.51a2.55,2.55,0,0,0,2.5-2.5q.78-10.27.76-20.56c0-3.22-5-3.23-5,0q0,10.29-.76,20.56l2.5-2.5-26.37-1.51v5a133.59,133.59,0,0,1,24.24.82c2.08.27,3.41-3,1.77-4.26-8.36-6.58-14.09-15.65-18.58-25.16s-7.75-19.88-16.63-26.17a30,30,0,0,0-27-3.57c-9.64,3.55-16,12-19.74,21.2-4.35,10.71-4.78,22.4-6.41,33.7-1.4,9.76-3.84,20.08-10.4,27.77-2.86,3.35-6.46,6.29-10.75,7.52-3.53,1-7.59,1.06-10.7-.83-4-2.43-4.43-7.86-4.35-12.27.11-6.1,1.74-12.06,3.64-17.83,3.74-11.35,9-22.82,8.11-35.06-.65-9.22-5.5-19.11-14.2-23.21C104.38,11.09,93.6,15.2,87.13,23,79.92,31.64,78.48,43.26,78,54.14c-.45,11.41-.17,23.12-5.65,33.51-4.37,8.28-12,16.52-21.47,18.53-4,.84-8.37.13-11-3.23-2.76-3.54-3-8.49-2.77-12.78.66-10.48,4.86-20.38,8.91-29.93,4.15-9.8,8.54-19.78,9.73-30.45,1-8.6-.66-18.87-7.63-24.75C44,1.5,38.66.12,33.25,0A60,60,0,0,0,17.47,2C12.38,3.26,7.79,5.76,4.64,10,1.8,13.9.65,18.69.2,23.38A70,70,0,0,0,.54,37,2.56,2.56,0,0,0,3,39.46,2.51,2.51,0,0,0,5.54,37Z"/>
    </g>
  </g>
</svg>
