<svg xmlns="http://www.w3.org/2000/svg" viewBox="0 0 383.17 201.79">
  <defs>
    <style>
      .cls-1 {
        fill: #fff;
      }
    </style>
  </defs>
  <g id="Layer_2" data-name="Layer 2">
    <g id="Layer_1-2" data-name="Layer 1">
      <g>
        <path class="cls-1" d="M378.46,48.78a253.61,253.61,0,0,1-61,67c-25.2,19.21-54.17,34.2-85.28,40.89-30.38,6.53-63.11,4.49-91.45-8.86-25.72-12.11-47-33.77-56.61-60.75-4.94-13.82-7.37-29.64-3.74-44S94.63,17.8,107.46,10.93C114.25,7.3,122,4.46,129.8,5.11a22.6,22.6,0,0,1,16.71,10.32c8.7,13,5.32,30-.2,43.57-10.39,25.5-33.22,45.57-60.19,51.55a85,85,0,0,1-43.87-2C29.09,104.37,14.78,96.56,8,84c-3.07-5.66-4-12-1.82-18.12C8.05,60.62,12.36,55.72,18,54.52c12.71-2.7,19.2,13,21.08,22.74,3.06,15.88,1.47,32.93-1.77,48.64C33.85,142.77,28.1,159.09,21.67,175,18.58,182.73,15.3,190.34,12,198c-1.27,2.92,3,5.47,4.31,2.53,14.26-32.92,29-67.39,29.24-103.89.08-13.84-1.06-30.88-11.47-41.32a19,19,0,0,0-17.17-5.62c-6.37,1.26-11.6,6.31-14.37,12-6.8,14,1,28.57,12,37.7C26.61,109.35,42,115,57.46,116.89c30.54,3.66,60.88-9.23,80-33.21C146.77,72,153.8,57.77,156.08,42.87c1.29-8.45.93-17.16-2.57-25.07-2.84-6.38-7.78-12.18-14.18-15.19C124.35-4.45,106.54,4,94.57,13.4A54.89,54.89,0,0,0,80,30.33a55.46,55.46,0,0,0-6.18,24.29c-1.17,30.47,14.68,60.29,37.32,79.94,24.62,21.37,57.56,31.18,89.84,30.75,34.2-.45,67.49-12.3,96.55-29.86A259.15,259.15,0,0,0,369.39,70.7q7.14-9.39,13.39-19.4c1.71-2.73-2.62-5.24-4.32-2.52Z"/>
        <path class="cls-1" d="M16.26,198,6.42,180a2.53,2.53,0,0,0-3.42-.9,2.56,2.56,0,0,0-.9,3.42l9.84,18A2.5,2.5,0,1,0,16.26,198Z"/>
        <path class="cls-1" d="M15,201.66q11.81-3,23.41-6.68c3.06-1,1.75-5.81-1.33-4.83q-11.59,3.72-23.41,6.68c-3.12.79-1.8,5.61,1.33,4.83Z"/>
      </g>
    </g>
  </g>
</svg>
